<mxfile host="app.diagrams.net" agent="Mozilla/5.0 (Windows NT 10.0; Win64; x64) AppleWebKit/537.36 (KHTML, like Gecko) Chrome/123.0.0.0 Safari/537.36" version="27.1.3">
  <diagram name="Page-1" id="2DD3EYPyCwQKk2ZTMU89">
    <mxGraphModel dx="727" dy="436" grid="1" gridSize="10" guides="1" tooltips="1" connect="1" arrows="1" fold="1" page="1" pageScale="1" pageWidth="850" pageHeight="1100" math="0" shadow="0">
      <root>
        <mxCell id="0" />
        <mxCell id="1" parent="0" />
        <mxCell id="xAj8T0STdCiKPVgXh9CC-19" value="" style="rounded=1;whiteSpace=wrap;html=1;" vertex="1" parent="1">
          <mxGeometry x="190" y="250" width="430" height="60" as="geometry" />
        </mxCell>
        <mxCell id="xAj8T0STdCiKPVgXh9CC-20" value="&lt;font style=&quot;font-size: 9px;&quot;&gt;Storage&lt;/font&gt;" style="rounded=1;whiteSpace=wrap;html=1;" vertex="1" parent="1">
          <mxGeometry x="190" y="160" width="70" height="60" as="geometry" />
        </mxCell>
        <mxCell id="xAj8T0STdCiKPVgXh9CC-21" value="&lt;font style=&quot;font-size: 9px;&quot;&gt;Communication&lt;/font&gt;" style="rounded=1;whiteSpace=wrap;html=1;" vertex="1" parent="1">
          <mxGeometry x="280" y="160" width="70" height="60" as="geometry" />
        </mxCell>
        <mxCell id="xAj8T0STdCiKPVgXh9CC-22" value="&lt;font style=&quot;font-size: 9px;&quot;&gt;Radio&lt;/font&gt;&lt;div&gt;&lt;font style=&quot;font-size: 9px;&quot;&gt;Communication&lt;/font&gt;&lt;/div&gt;" style="rounded=1;whiteSpace=wrap;html=1;" vertex="1" parent="1">
          <mxGeometry x="370" y="160" width="70" height="60" as="geometry" />
        </mxCell>
        <mxCell id="xAj8T0STdCiKPVgXh9CC-23" value="&lt;font size=&quot;1&quot;&gt;Sensors&lt;/font&gt;" style="rounded=1;whiteSpace=wrap;html=1;" vertex="1" parent="1">
          <mxGeometry x="460" y="160" width="70" height="60" as="geometry" />
        </mxCell>
        <mxCell id="xAj8T0STdCiKPVgXh9CC-24" value="&lt;font style=&quot;font-size: 9px;&quot;&gt;Health&lt;/font&gt;&lt;div&gt;&lt;font style=&quot;font-size: 9px;&quot;&gt;Monitoring&lt;/font&gt;&lt;/div&gt;" style="rounded=1;whiteSpace=wrap;html=1;" vertex="1" parent="1">
          <mxGeometry x="550" y="160" width="70" height="60" as="geometry" />
        </mxCell>
        <mxCell id="xAj8T0STdCiKPVgXh9CC-25" value="" style="endArrow=classic;startArrow=classic;html=1;rounded=0;exitX=0.5;exitY=1;exitDx=0;exitDy=0;entryX=0.081;entryY=0.012;entryDx=0;entryDy=0;entryPerimeter=0;" edge="1" parent="1" source="xAj8T0STdCiKPVgXh9CC-20" target="xAj8T0STdCiKPVgXh9CC-19">
          <mxGeometry width="50" height="50" relative="1" as="geometry">
            <mxPoint x="230" y="120" as="sourcePoint" />
            <mxPoint x="280" y="70" as="targetPoint" />
          </mxGeometry>
        </mxCell>
        <mxCell id="xAj8T0STdCiKPVgXh9CC-26" value="" style="endArrow=classic;startArrow=classic;html=1;rounded=0;exitX=0.5;exitY=1;exitDx=0;exitDy=0;entryX=0.291;entryY=-0.008;entryDx=0;entryDy=0;entryPerimeter=0;" edge="1" parent="1" source="xAj8T0STdCiKPVgXh9CC-21" target="xAj8T0STdCiKPVgXh9CC-19">
          <mxGeometry width="50" height="50" relative="1" as="geometry">
            <mxPoint x="360" y="130" as="sourcePoint" />
            <mxPoint x="410" y="80" as="targetPoint" />
          </mxGeometry>
        </mxCell>
        <mxCell id="xAj8T0STdCiKPVgXh9CC-27" value="" style="endArrow=classic;startArrow=classic;html=1;rounded=0;exitX=0.5;exitY=1;exitDx=0;exitDy=0;entryX=0.709;entryY=-0.001;entryDx=0;entryDy=0;entryPerimeter=0;" edge="1" parent="1" source="xAj8T0STdCiKPVgXh9CC-23" target="xAj8T0STdCiKPVgXh9CC-19">
          <mxGeometry width="50" height="50" relative="1" as="geometry">
            <mxPoint x="460" y="160" as="sourcePoint" />
            <mxPoint x="510" y="110" as="targetPoint" />
          </mxGeometry>
        </mxCell>
        <mxCell id="xAj8T0STdCiKPVgXh9CC-28" value="" style="endArrow=classic;startArrow=classic;html=1;rounded=0;exitX=0.5;exitY=1;exitDx=0;exitDy=0;entryX=0.919;entryY=0.006;entryDx=0;entryDy=0;entryPerimeter=0;" edge="1" parent="1" source="xAj8T0STdCiKPVgXh9CC-24" target="xAj8T0STdCiKPVgXh9CC-19">
          <mxGeometry width="50" height="50" relative="1" as="geometry">
            <mxPoint x="480" y="110" as="sourcePoint" />
            <mxPoint x="530" y="60" as="targetPoint" />
          </mxGeometry>
        </mxCell>
        <mxCell id="xAj8T0STdCiKPVgXh9CC-29" value="" style="endArrow=classic;startArrow=classic;html=1;rounded=0;exitX=0.5;exitY=1;exitDx=0;exitDy=0;entryX=0.5;entryY=0;entryDx=0;entryDy=0;" edge="1" parent="1" source="xAj8T0STdCiKPVgXh9CC-22" target="xAj8T0STdCiKPVgXh9CC-19">
          <mxGeometry width="50" height="50" relative="1" as="geometry">
            <mxPoint x="450" y="100" as="sourcePoint" />
            <mxPoint x="500" y="50" as="targetPoint" />
          </mxGeometry>
        </mxCell>
        <mxCell id="xAj8T0STdCiKPVgXh9CC-30" value="&lt;font style=&quot;font-size: 9px;&quot;&gt;Data Struct Array&lt;/font&gt;" style="text;strokeColor=none;align=center;fillColor=none;html=1;verticalAlign=middle;whiteSpace=wrap;rounded=0;" vertex="1" parent="1">
          <mxGeometry x="210" y="265" width="60" height="30" as="geometry" />
        </mxCell>
        <mxCell id="xAj8T0STdCiKPVgXh9CC-31" value="&lt;font style=&quot;font-size: 9px;&quot;&gt;Data Updated Array (Storage)&lt;/font&gt;" style="text;strokeColor=none;align=center;fillColor=none;html=1;verticalAlign=middle;whiteSpace=wrap;rounded=0;" vertex="1" parent="1">
          <mxGeometry x="310" y="265" width="60" height="30" as="geometry" />
        </mxCell>
        <mxCell id="xAj8T0STdCiKPVgXh9CC-32" value="&lt;font style=&quot;font-size: 9px;&quot;&gt;Data Updated Array (Radio)&lt;/font&gt;" style="text;strokeColor=none;align=center;fillColor=none;html=1;verticalAlign=middle;whiteSpace=wrap;rounded=0;" vertex="1" parent="1">
          <mxGeometry x="420" y="265" width="60" height="30" as="geometry" />
        </mxCell>
        <mxCell id="xAj8T0STdCiKPVgXh9CC-33" value="&lt;font style=&quot;font-size: 9px;&quot;&gt;Fault Flag Array&lt;/font&gt;" style="text;strokeColor=none;align=center;fillColor=none;html=1;verticalAlign=middle;whiteSpace=wrap;rounded=0;" vertex="1" parent="1">
          <mxGeometry x="520" y="265" width="60" height="30" as="geometry" />
        </mxCell>
      </root>
    </mxGraphModel>
  </diagram>
</mxfile>
